<?xml version="1.0" standalone="no"?>
<!DOCTYPE svg PUBLIC "-//W3C//DTD SVG 20010904//EN"
 "http://www.w3.org/TR/2001/REC-SVG-20010904/DTD/svg10.dtd">
<svg version="1.0" xmlns="http://www.w3.org/2000/svg"
 width="580.000000pt" height="610.000000pt" viewBox="0 0 580.000000 610.000000"
 preserveAspectRatio="xMidYMid meet">
<metadata>
Created by potrace 1.16, written by Peter Selinger 2001-2019
</metadata>
<g transform="translate(0.000000,610.000000) scale(0.100000,-0.100000)"
fill="#000000" stroke="none">
<path d="M0 3050 l0 -3050 2900 0 2900 0 0 3050 0 3050 -2900 0 -2900 0 0
-3050z m5430 245 c0 -2037 -3 -2555 -12 -2555 -16 -1 -4495 -1 -4818 0 l-235
0 3 2542 c1 1399 2 2549 2 2556 0 9 513 12 2530 12 l2530 0 0 -2555z"/>
<path d="M717 5513 c-4 -3 -7 -66 -7 -139 l0 -132 192 -184 c106 -100 300
-289 433 -418 132 -130 283 -276 335 -325 52 -50 202 -196 333 -325 131 -129
244 -236 251 -238 18 -4 27 9 91 133 32 61 65 121 74 135 9 14 23 39 31 55 8
17 27 52 42 78 16 27 51 92 79 145 29 53 59 108 68 122 9 14 28 48 41 75 13
28 31 61 40 75 9 14 41 70 70 125 29 55 60 111 69 125 9 14 28 48 41 75 14 28
40 77 60 110 19 33 42 74 50 90 8 17 22 41 31 55 9 14 39 68 66 120 61 117 90
167 114 202 11 14 19 31 19 37 0 12 -2511 16 -2523 4z"/>
<path d="M3649 5503 c-8 -10 -24 -36 -36 -58 -11 -22 -31 -58 -44 -80 -12 -22
-39 -71 -59 -110 -20 -38 -47 -88 -60 -110 -13 -22 -45 -82 -72 -134 -26 -51
-52 -99 -57 -105 -6 -6 -33 -57 -62 -111 -28 -55 -59 -111 -68 -125 -9 -14
-23 -38 -31 -55 -8 -16 -27 -52 -42 -78 -16 -27 -51 -90 -78 -142 -27 -52 -63
-117 -80 -145 -16 -28 -30 -53 -30 -55 0 -2 -14 -27 -30 -56 -17 -28 -48 -84
-69 -123 -21 -39 -48 -89 -61 -111 -13 -22 -36 -65 -53 -95 -16 -30 -33 -60
-38 -65 -4 -6 -31 -56 -60 -110 -29 -55 -59 -111 -68 -125 -9 -14 -28 -47 -41
-75 -13 -27 -29 -57 -36 -65 -7 -8 -32 -53 -57 -100 -24 -47 -53 -101 -65
-121 -11 -21 -44 -81 -73 -135 -29 -55 -56 -104 -60 -109 -4 -6 -31 -56 -60
-110 -28 -55 -55 -105 -59 -110 -10 -12 -28 -46 -179 -330 -18 -33 -36 -64
-41 -70 -4 -5 -30 -53 -57 -105 -28 -52 -60 -113 -73 -135 -13 -22 -45 -82
-72 -134 -26 -51 -52 -99 -57 -105 -4 -6 -32 -56 -61 -111 -29 -55 -56 -104
-60 -110 -4 -5 -31 -55 -59 -110 -29 -54 -56 -104 -60 -110 -5 -5 -32 -55 -61
-110 -29 -55 -64 -116 -76 -135 -13 -19 -24 -38 -24 -42 0 -5 200 -8 445 -8
l445 0 25 40 c14 22 25 42 25 44 0 2 16 33 36 68 20 34 60 108 89 163 29 55
67 124 84 153 17 29 31 55 31 58 0 2 12 23 26 45 14 22 50 89 81 147 30 59 59
112 63 117 5 6 25 42 45 80 21 39 49 90 63 115 14 25 38 70 54 100 16 30 33
59 37 65 5 5 32 55 61 110 29 55 56 105 60 110 4 6 31 55 60 110 29 55 56 105
60 110 4 6 28 50 54 98 26 49 57 105 69 125 12 21 29 51 37 67 8 17 25 46 37
67 12 20 43 75 68 122 25 47 59 108 75 136 17 28 30 53 30 55 0 2 14 27 30 55
17 28 53 95 81 148 28 53 55 102 59 107 4 6 31 55 60 110 29 55 56 105 60 110
4 6 29 51 55 100 26 50 51 95 55 100 4 6 29 51 55 100 26 50 51 95 55 100 4 6
25 44 47 85 22 41 50 93 63 115 13 22 39 69 58 105 35 65 71 133 132 245 18
33 36 65 40 70 4 6 29 51 55 100 26 50 51 95 55 100 4 6 29 49 54 97 25 48 60
110 76 138 17 28 30 53 30 56 0 3 13 25 30 48 16 24 26 46 23 50 -4 3 -205 6
-448 6 -409 0 -443 -1 -456 -17z"/>
<path d="M4963 5508 c-4 -7 -13 -22 -19 -33 -6 -11 -22 -40 -36 -65 -48 -86
-89 -161 -116 -213 -15 -28 -39 -70 -53 -92 -13 -22 -36 -62 -49 -90 -13 -27
-32 -61 -41 -75 -9 -14 -42 -74 -74 -135 -32 -60 -61 -114 -65 -120 -4 -5 -29
-50 -55 -100 -26 -49 -51 -94 -55 -100 -4 -5 -31 -55 -60 -109 -29 -55 -61
-116 -73 -135 -11 -20 -36 -65 -55 -101 -19 -36 -47 -87 -62 -115 -15 -27 -44
-81 -65 -120 -21 -38 -41 -74 -45 -80 -4 -5 -29 -50 -55 -100 -26 -49 -51 -94
-55 -100 -4 -5 -29 -50 -55 -100 -26 -49 -51 -94 -55 -100 -4 -5 -28 -50 -54
-98 -26 -49 -58 -106 -71 -128 -14 -21 -25 -41 -25 -44 0 -2 -17 -33 -38 -67
-20 -35 -48 -85 -62 -113 -13 -27 -32 -61 -41 -75 -28 -41 -59 -100 -59 -110
0 -7 286 -9 803 -8 l802 3 3 1368 2 1367 -54 0 c-33 0 -58 -5 -63 -12z"/>
<path d="M712 2903 l3 -1828 44 0 c49 0 43 -8 124 145 22 41 43 80 47 85 4 6
36 64 70 130 34 66 66 125 70 130 5 6 25 42 45 80 21 39 49 90 63 115 14 25
42 77 62 115 20 39 46 87 58 108 12 20 47 86 78 145 32 59 68 124 81 144 12
21 23 40 23 42 0 3 14 28 30 56 17 28 53 95 81 148 28 53 55 102 59 107 4 6
36 64 70 130 34 66 71 132 81 147 11 14 19 29 19 32 0 3 14 28 30 56 17 28 53
95 81 148 28 53 55 102 59 107 4 6 26 44 48 86 l41 76 -242 234 c-133 129
-374 365 -537 524 -460 453 -570 560 -581 563 -6 2 -8 -676 -7 -1825z"/>
<path d="M3266 2420 c-7 -8 -23 -37 -36 -65 -14 -27 -38 -72 -54 -100 -16 -27
-50 -90 -76 -140 -26 -49 -58 -108 -70 -130 -13 -22 -42 -77 -65 -122 -23 -45
-47 -88 -52 -95 -6 -7 -26 -42 -45 -78 -19 -36 -46 -85 -60 -110 -14 -25 -40
-72 -58 -105 -18 -33 -44 -80 -58 -105 -14 -25 -43 -78 -64 -119 -21 -41 -42
-79 -47 -85 -5 -6 -18 -28 -30 -49 -15 -28 -18 -39 -9 -42 7 -3 580 -4 1273
-3 l1260 3 3 673 c2 533 0 674 -10 677 -7 3 -413 6 -901 7 -780 3 -890 1 -901
-12z"/>
</g>
</svg>
